<?xml version="1.0" standalone="no"?>
<!DOCTYPE svg PUBLIC "-//W3C//DTD SVG 20010904//EN"
 "http://www.w3.org/TR/2001/REC-SVG-20010904/DTD/svg10.dtd">
<svg version="1.0" xmlns="http://www.w3.org/2000/svg"
 width="128.000000pt" height="128.000000pt" viewBox="0 0 128.000000 128.000000"
 preserveAspectRatio="xMidYMid meet">
<metadata>
Created by potrace 1.10, written by Peter Selinger 2001-2011
</metadata>
<g transform="translate(0.000000,128.000000) scale(0.100000,-0.100000)"
fill="#000000" stroke="none">
<path d="M616 1267 c-25 -18 -20 -184 7 -201 12 -8 22 -8 35 0 26 17 31 183 6
201 -10 7 -21 13 -24 13 -3 0 -14 -6 -24 -13z"/>
<path d="M190 1090 c-11 -11 -20 -25 -20 -31 0 -6 26 -37 57 -70 48 -51 62
-60 87 -57 24 2 32 9 34 27 3 18 -10 37 -50 78 -71 73 -83 78 -108 53z"/>
<path d="M994 1048 c-51 -49 -64 -67 -62 -88 2 -19 9 -26 32 -28 23 -3 38 6
78 45 62 60 72 77 59 102 -21 39 -41 33 -107 -31z"/>
<path d="M544 946 c-97 -31 -190 -131 -215 -230 -35 -141 39 -296 177 -366 69
-35 197 -36 267 -2 60 30 125 95 157 158 35 69 36 197 2 267 -30 61 -95 125
-157 156 -59 30 -169 38 -231 17z m222 -111 c71 -44 107 -117 102 -206 -5 -91
-42 -152 -118 -192 -48 -25 -64 -28 -121 -25 -91 5 -152 42 -192 118 -25 48
-28 64 -25 121 5 91 42 152 118 192 48 25 64 28 121 25 52 -3 77 -10 115 -33z"/>
<path d="M10 660 c-8 -14 -8 -26 0 -40 10 -19 19 -20 102 -18 74 2 93 6 102
21 8 12 8 22 0 35 -9 14 -28 18 -102 20 -83 2 -92 1 -102 -18z"/>
<path d="M1072 668 c-7 -7 -12 -19 -12 -28 0 -32 23 -40 112 -40 77 0 89 2 98
20 8 14 8 26 0 40 -9 18 -21 20 -98 20 -55 0 -92 -4 -100 -12z"/>
<path d="M227 291 c-31 -33 -57 -64 -57 -70 0 -6 9 -20 20 -31 25 -25 37 -20
108 53 40 41 53 60 50 78 -2 18 -10 25 -34 27 -25 3 -39 -6 -87 -57z"/>
<path d="M934 335 c-11 -29 6 -62 56 -109 39 -36 57 -47 78 -44 21 2 28 9 30
30 5 40 -88 138 -130 138 -16 0 -31 -6 -34 -15z"/>
<path d="M612 208 c-8 -8 -12 -45 -12 -100 0 -77 2 -89 20 -98 14 -8 26 -8 40
0 18 9 20 21 20 98 0 89 -8 112 -40 112 -9 0 -21 -5 -28 -12z"/>
</g>
</svg>
