<?xml version="1.0" standalone="no"?>
<!DOCTYPE svg PUBLIC "-//W3C//DTD SVG 20010904//EN"
 "http://www.w3.org/TR/2001/REC-SVG-20010904/DTD/svg10.dtd">
<svg version="1.0" xmlns="http://www.w3.org/2000/svg"
 width="300.000000pt" height="300.000000pt" viewBox="0 0 300.000000 300.000000"
 preserveAspectRatio="xMidYMid meet">
<metadata>
Created by potrace 1.10, written by Peter Selinger 2001-2011
</metadata>
<g transform="translate(0.000000,300.000000) scale(0.100000,-0.100000)"
fill="#000000" stroke="none">
<path d="M1095 2701 c-340 -97 -624 -421 -730 -831 -35 -138 -44 -331 -21
-470 80 -490 457 -872 946 -961 105 -19 343 -17 450 5 499 101 858 448 922
892 17 120 -1 135 -103 90 -114 -50 -181 -61 -369 -60 -146 0 -188 4 -252 22
-375 103 -642 373 -739 748 -31 119 -34 356 -6 449 29 95 30 101 12 118 -20
21 -33 20 -110 -2z m75 -48 c-1 -10 -6 -29 -13 -43 l-12 -25 -33 32 -34 33 24
9 c39 16 68 13 68 -6z m-81 -119 c-18 -103 -6 -307 24 -426 104 -401 404 -701
808 -808 170 -45 481 -37 608 16 19 8 36 13 38 11 2 -2 -8 -44 -22 -92 -98
-336 -380 -590 -762 -687 -77 -20 -112 -23 -288 -22 -188 0 -205 2 -290 27
-259 79 -468 233 -609 449 -68 104 -110 200 -143 327 -21 81 -26 120 -27 246
-1 157 6 207 51 350 69 219 209 425 377 552 55 41 236 137 244 129 2 -2 -2
-34 -9 -72z m1533 -1179 c-3 -40 -22 -75 -22 -42 0 10 -14 26 -31 36 l-31 19
28 16 c45 24 60 17 56 -29z m-1951 -520 c35 -39 40 -48 15 -25 -21 19 -52 53
-69 75 -36 47 -21 33 54 -50z"/>
</g>
</svg>
